<svg width="812" height="360" viewBox="0 0 812 360" fill="none" xmlns="http://www.w3.org/2000/svg">
<path d="M614.411 117.697C614.411 117.697 517.879 29.6124 449.172 10.7305C380.466 -8.15147 107.989 13.6113 98.8674 19.1224C89.7462 24.6336 35.1184 81.2481 24.5101 104.075C13.9018 126.903 14.5958 161.473 16.9092 172.464C17.6476 177.731 19.4543 182.814 22.2298 187.432C22.2298 187.432 5.70599 186.649 4.02056 195.291C2.33513 203.934 4.02056 256.634 4.02056 267.625C4.02056 278.616 13.1417 286.413 24.5101 288.855C35.8785 291.298 166.384 288.855 166.384 288.855C166.384 288.855 176.992 303.823 181.553 303.823H802.551C816.2 303.823 801.791 285.724 797.991 285.724C797.991 285.724 807.112 219.653 801.791 215.739L796.47 211.637C796.871 205.055 795.477 198.485 792.421 192.562C789.364 186.639 784.75 181.561 779.021 177.818C759.424 165.23 701.128 140.963 614.411 117.697Z" fill="#68E1FD"/>
<path d="M802.562 306.799H181.531C176.64 306.799 169.832 298.971 164.644 291.863C144.815 292.238 34.7994 294.055 23.7946 291.863C9.98065 289.013 0.661223 279.337 0.661223 267.564C0.661223 264.777 0.661206 259.266 0.46292 252.439C-0.0327939 225.572 -0.363264 200.929 0.727307 194.697C1.95007 187.683 10.0137 185.022 16.9537 184.364C15.4995 180.686 14.3936 176.892 13.6489 173.029C11.4017 162.1 10.3442 126.403 21.4812 102.73C32.6183 79.0573 87.0477 22.4741 97.0611 16.4307C103.671 12.5478 185.331 5.81542 251.427 2.59015C308.599 -0.165423 410.452 -3.1715 450.01 7.66292C516.733 25.9812 607.151 106.707 616.107 114.817C699.949 137.457 759.435 161.537 780.882 175.221C786.874 179.083 791.75 184.303 795.069 190.406C798.388 196.509 800.043 203.302 799.885 210.166L803.851 213.11C808.279 216.398 807.519 240.164 801.603 283.721C806.329 286.853 811.518 294.493 811.518 299.378C811.563 300.391 811.364 301.4 810.934 302.328C810.504 303.256 809.856 304.078 809.039 304.733C807.207 306.127 804.911 306.86 802.562 306.799ZM166.362 285.569C166.906 285.571 167.441 285.701 167.92 285.947C168.399 286.193 168.806 286.547 169.105 286.978C173.897 293.71 179.812 300.036 181.729 300.537H802.562C802.793 300.537 804.842 300.537 804.974 299.91C805.602 296.936 799.819 289.702 797.572 288.669C796.704 288.56 795.918 288.129 795.386 287.472C794.853 286.814 794.617 285.984 794.729 285.162C798.794 255.696 801.636 222.754 799.455 217.807L794.465 214.112C794.024 213.786 793.677 213.359 793.458 212.872C793.238 212.384 793.153 211.852 793.209 211.325C793.575 205.301 792.291 199.29 789.483 193.875C786.675 188.46 782.437 183.825 777.181 180.419C756.659 167.33 696.677 142.999 613.529 120.548C613.009 120.408 612.532 120.15 612.141 119.796C611.183 118.919 515.378 32.1186 448.192 13.5811C378.396 -5.55131 109.784 17.4953 100.498 21.6913C91.8727 26.8893 37.6415 83.4099 27.5289 105.173C17.0859 127.53 18.0112 161.38 20.1593 171.713C20.8667 176.528 22.4784 181.184 24.9182 185.46C25.2716 185.943 25.4745 186.51 25.5038 187.097C25.533 187.684 25.3873 188.267 25.0834 188.779C24.7877 189.293 24.3461 189.717 23.8088 190.005C23.2714 190.293 22.6597 190.432 22.043 190.408C18.4739 190.22 8.09694 190.846 7.27075 195.637C6.18018 201.9 6.74197 233.369 7.07245 252.251C7.07245 259.109 7.3038 264.777 7.3038 267.47C7.3038 276.269 14.3429 283.408 25.1826 285.663C34.2046 287.51 130.109 286.226 166.296 285.663L166.362 285.569Z" fill="#093F68"/>
<path d="M361.967 121.083L350.565 28.27C350.565 28.27 424.162 34.5327 465.142 47.058C506.121 59.5834 548.587 89.5189 556.188 103.766C563.789 118.014 562.269 129.725 556.188 131.948C550.107 134.172 361.967 121.083 361.967 121.083Z" fill="white"/>
<path d="M550.845 135.357C522.391 135.357 412.045 127.779 361.713 124.178C360.948 124.125 360.225 123.82 359.671 123.318C359.116 122.815 358.763 122.145 358.673 121.422L347.305 28.6408C347.246 28.1744 347.298 27.7015 347.459 27.2571C347.619 26.8126 347.882 26.4079 348.23 26.0731C348.573 25.7468 348.988 25.4963 349.445 25.3393C349.902 25.1824 350.39 25.1228 350.874 25.165C353.914 25.4155 425.33 31.6156 466.177 44.1722C505.999 56.4157 550.581 86.3825 559.14 102.352C564.428 112.185 566.014 122.017 563.403 128.656C562.93 130.036 562.155 131.307 561.131 132.385C560.106 133.464 558.854 134.327 557.455 134.918C555.275 135.297 553.059 135.444 550.845 135.357ZM364.952 118.134C438.582 123.364 548.102 130.409 555.24 129.094C556.203 128.461 556.904 127.532 557.223 126.464C558.743 122.612 558.479 114.972 553.257 105.202C546.251 92.1442 504.843 62.6157 464.029 50.1217C429.362 39.4752 370.174 33.2752 354.245 31.7721L364.952 118.134Z" fill="#093F68"/>
<path d="M545.719 146.231C543.307 146.075 551.04 90.9946 551.04 90.9946C551.04 90.9946 576.057 98.0714 583.658 115.325C591.259 132.579 579.857 148.392 545.719 146.231Z" fill="#093F68"/>
<path d="M551.631 149.545C549.648 149.545 547.599 149.483 545.484 149.358C544.534 149.262 543.659 148.825 543.038 148.136C541.948 146.915 540.163 144.817 547.731 90.5824C547.798 90.1373 547.966 89.7111 548.222 89.3329C548.479 88.9547 548.819 88.6332 549.218 88.3905C549.619 88.1434 550.072 87.9819 550.546 87.917C551.02 87.8521 551.502 87.8854 551.961 88.0147C553.052 88.2965 578.597 95.6865 586.694 114.099C588.624 117.796 589.493 121.91 589.215 126.027C588.936 130.143 587.52 134.118 585.108 137.552C579.192 145.381 567.427 149.545 551.631 149.545ZM548.524 143.283C563.726 143.846 574.731 140.558 579.721 133.889C581.451 131.314 582.44 128.356 582.591 125.308C582.742 122.259 582.048 119.226 580.58 116.51C575.359 104.642 560.752 97.7219 553.779 95.2481C551.003 115.445 548.59 136.488 548.524 143.22V143.283Z" fill="#093F68"/>
<path d="M329.361 118.703L324.801 28.27C324.801 28.27 183.687 28.27 170.765 34.5327C157.844 40.7954 116.171 72.3279 117.658 86.3876C119.145 100.447 142.708 102.89 149.549 106.835C156.39 110.781 329.361 118.703 329.361 118.703Z" fill="white"/>
<path d="M329.348 121.831H329.183C288.402 119.983 154.824 113.627 147.817 109.587C145.371 108.465 142.828 107.543 140.216 106.832C130.302 103.7 115.695 99.1913 114.373 86.7912C112.589 70.0386 157.335 37.5979 169.265 31.7737C182.484 25.3231 310.247 25.1353 324.787 25.1353C325.664 25.1353 326.505 25.4652 327.124 26.0524C327.744 26.6396 328.092 27.4361 328.092 28.2666L332.62 118.731C332.62 119.561 332.272 120.358 331.652 120.945C331.032 121.532 330.192 121.862 329.315 121.862L329.348 121.831ZM321.648 31.3979C265.203 31.3979 181.063 33.0575 172.273 37.3474C158.062 44.299 119.727 74.9234 120.95 86.1649C121.842 94.5256 133.177 98.0327 142.265 100.882C145.408 101.701 148.453 102.824 151.354 104.233C158.194 106.863 258.163 112.312 325.944 115.412L321.648 31.3979Z" fill="#093F68"/>
<path d="M155.159 356.839C198.525 356.839 233.68 323.528 233.68 282.438C233.68 241.348 198.525 208.038 155.159 208.038C111.793 208.038 76.6377 241.348 76.6377 282.438C76.6377 323.528 111.793 356.839 155.159 356.839Z" fill="#093F68"/>
<path d="M155.15 360C138.96 360 123.133 355.451 109.672 346.928C96.21 338.405 85.7179 326.292 79.5222 312.119C73.3265 297.946 71.7054 282.351 74.864 267.305C78.0225 252.259 85.8188 238.439 97.267 227.591C108.715 216.744 123.301 209.357 139.18 206.364C155.059 203.371 171.518 204.907 186.476 210.778C201.434 216.648 214.218 226.59 223.213 239.345C232.208 252.1 237.009 267.096 237.009 282.437C236.991 303.003 228.361 322.721 213.014 337.264C197.666 351.806 176.855 359.983 155.15 360ZM155.15 211.168C140.266 211.168 125.716 215.35 113.34 223.186C100.965 231.022 91.3199 242.159 85.6254 255.19C79.931 268.22 78.4427 282.558 81.3489 296.39C84.2551 310.221 91.4252 322.926 101.952 332.896C112.479 342.866 125.891 349.655 140.49 352.402C155.089 355.15 170.22 353.733 183.97 348.332C197.719 342.931 209.469 333.787 217.734 322.058C225.998 310.328 230.406 296.54 230.399 282.437C230.373 263.537 222.436 245.419 208.328 232.058C194.221 218.697 175.096 211.184 155.15 211.168Z" fill="#093F68"/>
<path d="M155.148 325.055C179.988 325.055 200.126 305.975 200.126 282.438C200.126 258.901 179.988 239.82 155.148 239.82C130.307 239.82 110.17 258.901 110.17 282.438C110.17 305.975 130.307 325.055 155.148 325.055Z" fill="#68E1FD"/>
<path d="M155.16 328.186C145.61 328.186 136.275 325.503 128.335 320.476C120.395 315.449 114.207 308.304 110.552 299.945C106.898 291.586 105.942 282.387 107.805 273.513C109.668 264.638 114.266 256.487 121.019 250.088C127.771 243.69 136.374 239.333 145.74 237.568C155.106 235.803 164.814 236.709 173.637 240.171C182.459 243.634 190 249.498 195.305 257.021C200.61 264.544 203.442 273.389 203.442 282.438C203.433 294.568 198.344 306.2 189.291 314.778C180.238 323.356 167.962 328.178 155.16 328.186ZM155.16 242.983C146.916 242.983 138.858 245.3 132.004 249.64C125.15 253.98 119.809 260.149 116.656 267.366C113.502 274.583 112.679 282.524 114.29 290.184C115.9 297.844 119.873 304.88 125.704 310.401C131.535 315.922 138.964 319.68 147.05 321.2C155.136 322.72 163.516 321.934 171.13 318.94C178.744 315.947 185.25 310.881 189.826 304.384C194.401 297.886 196.839 290.249 196.833 282.438C196.833 271.965 192.442 261.922 184.627 254.517C176.812 247.112 166.212 242.952 155.16 242.952V242.983Z" fill="#093F68"/>
<path d="M610.522 356.839C653.888 356.839 689.043 323.528 689.043 282.438C689.043 241.348 653.888 208.038 610.522 208.038C567.156 208.038 532.001 241.348 532.001 282.438C532.001 323.528 567.156 356.839 610.522 356.839Z" fill="#093F68"/>
<path d="M610.521 360C594.331 360 578.504 355.451 565.043 346.928C551.581 338.405 541.089 326.292 534.893 312.119C528.698 297.946 527.076 282.351 530.235 267.305C533.394 252.259 541.19 238.439 552.638 227.591C564.086 216.744 578.672 209.357 594.551 206.364C610.43 203.371 626.889 204.907 641.847 210.778C656.805 216.648 669.59 226.59 678.584 239.345C687.579 252.1 692.38 267.096 692.38 282.437C692.363 303.003 683.733 322.721 668.385 337.264C653.037 351.806 632.226 359.983 610.521 360ZM610.521 211.168C595.637 211.168 581.087 215.35 568.711 223.186C556.336 231.022 546.691 242.159 540.997 255.19C535.302 268.22 533.814 282.558 536.72 296.39C539.626 310.221 546.796 322.926 557.323 332.896C567.851 342.866 581.262 349.655 595.861 352.402C610.46 355.15 625.591 353.733 639.341 348.332C653.09 342.931 664.84 333.787 673.105 322.058C681.369 310.328 685.777 296.54 685.771 282.437C685.744 263.537 677.807 245.419 663.699 232.058C649.592 218.697 630.467 211.184 610.521 211.168Z" fill="#093F68"/>
<path d="M610.524 325.055C635.364 325.055 655.502 305.975 655.502 282.438C655.502 258.901 635.364 239.82 610.524 239.82C585.683 239.82 565.546 258.901 565.546 282.438C565.546 305.975 585.683 325.055 610.524 325.055Z" fill="#68E1FD"/>
<path d="M610.521 328.186C600.971 328.186 591.637 325.503 583.696 320.476C575.756 315.449 569.568 308.304 565.914 299.945C562.259 291.586 561.303 282.387 563.166 273.513C565.029 264.638 569.628 256.487 576.38 250.088C583.132 243.69 591.735 239.333 601.101 237.568C610.467 235.803 620.175 236.709 628.998 240.171C637.82 243.634 645.361 249.498 650.666 257.021C655.972 264.544 658.803 273.389 658.803 282.438C658.795 294.568 653.705 306.2 644.652 314.778C635.599 323.356 623.323 328.178 610.521 328.186ZM610.521 242.983C602.277 242.983 594.219 245.3 587.365 249.64C580.511 253.98 575.17 260.149 572.017 267.366C568.864 274.583 568.04 282.524 569.651 290.184C571.262 297.844 575.234 304.88 581.065 310.401C586.897 315.922 594.325 319.68 602.411 321.2C610.497 322.72 618.877 321.934 626.491 318.94C634.106 315.947 640.612 310.881 645.187 304.384C649.762 297.886 652.2 290.249 652.194 282.438C652.194 277.252 651.116 272.118 649.022 267.327C646.927 262.536 643.858 258.183 639.988 254.517C636.118 250.85 631.524 247.942 626.468 245.957C621.412 243.973 615.993 242.952 610.521 242.952V242.983Z" fill="#093F68"/>
<path d="M38.2087 111.809C35.144 118.452 32.6249 125.309 30.6739 132.32C27.5674 149.605 27.3691 166.764 29.3519 168.361C31.3348 169.958 50.6016 169.582 52.8818 168.361C55.1621 167.14 70.8267 140.179 72.7104 134.355C74.5941 128.531 78.659 116.6 75.0568 114.221C71.4546 111.841 41.7448 108.459 38.2087 111.809Z" fill="#FFBC0E"/>
<path d="M39.5461 172.595C29.4005 172.595 27.9133 171.342 27.1532 170.747C21.5351 166.082 27.3515 132.138 27.4176 131.793C29.3917 124.542 31.9778 117.453 35.1508 110.594C35.3155 110.232 35.551 109.903 35.8448 109.624C41.0002 104.739 72.8581 108.872 77.0552 111.659C81.2522 114.446 80.9218 121.303 75.9646 135.332C74.6758 139.027 58.5485 168.962 54.4506 171.123C50.0832 172.257 45.5587 172.754 41.0333 172.595H39.5461ZM31.7799 165.925C38.2029 166.541 44.6799 166.447 51.0798 165.643C58.1394 155.346 64.3594 144.553 69.6856 133.359C74.147 120.834 73.42 117.389 72.9903 116.732C68.7272 114.696 45.693 112.473 40.6697 114.007C37.8575 120.088 35.559 126.37 33.7958 132.795C31.5687 143.704 30.8907 154.846 31.7799 165.925Z" fill="#093F68"/>
<path d="M781.174 216.396C781.174 216.396 779.456 197.796 769.608 192.754C759.76 187.713 721.59 173.246 718.979 179.728C716.368 186.21 735.668 209.194 740.592 213.139C745.516 217.085 781.174 216.396 781.174 216.396Z" fill="#FFBC0E"/>
<path d="M773.255 219.59C760.631 219.59 742.752 218.964 738.456 215.551C735.449 213.108 712.018 187.87 715.885 178.601C716.184 177.869 716.65 177.209 717.25 176.667C717.849 176.126 718.568 175.717 719.355 175.47C729.434 171.931 765.621 187.056 771.173 189.937C782.31 195.604 784.392 213.985 784.392 216.052C784.43 216.476 784.377 216.903 784.235 217.307C784.092 217.711 783.865 218.083 783.566 218.4C783.264 218.727 782.893 218.99 782.478 219.173C782.063 219.356 781.612 219.456 781.154 219.465L773.255 219.59ZM721.998 181.263C721.734 186.179 736.473 205.718 742.752 210.76C745.363 212.576 762.085 213.453 777.419 213.296C776.329 207.472 773.586 198.328 768.034 195.51C755.905 189.31 727.617 179.791 721.998 181.263Z" fill="#093F68"/>
<path d="M43.0029 200.395H22.2159C21.3394 200.395 20.4988 200.066 19.8791 199.478C19.2593 198.891 18.9111 198.095 18.9111 197.264C18.9111 196.434 19.2593 195.637 19.8791 195.05C20.4988 194.463 21.3394 194.133 22.2159 194.133H43.0029C43.8794 194.133 44.7199 194.463 45.3397 195.05C45.9595 195.637 46.3076 196.434 46.3076 197.264C46.3076 198.095 45.9595 198.891 45.3397 199.478C44.7199 200.066 43.8794 200.395 43.0029 200.395Z" fill="#093F68"/>
<path d="M436.669 156.461H397.607C396.73 156.461 395.889 156.131 395.27 155.544C394.65 154.957 394.302 154.161 394.302 153.33C394.302 152.5 394.65 151.703 395.27 151.116C395.889 150.529 396.73 150.199 397.607 150.199H436.669C437.545 150.199 438.386 150.529 439.006 151.116C439.625 151.703 439.974 152.5 439.974 153.33C439.974 154.161 439.625 154.957 439.006 155.544C438.386 156.131 437.545 156.461 436.669 156.461Z" fill="#093F68"/>
<path d="M305.09 156.461H266.027C265.151 156.461 264.31 156.131 263.691 155.544C263.071 154.957 262.723 154.161 262.723 153.33C262.723 152.5 263.071 151.703 263.691 151.116C264.31 150.529 265.151 150.199 266.027 150.199H305.09C305.966 150.199 306.807 150.529 307.427 151.116C308.046 151.703 308.395 152.5 308.395 153.33C308.395 154.161 308.046 154.957 307.427 155.544C306.807 156.131 305.966 156.461 305.09 156.461Z" fill="#093F68"/>
<path d="M356.55 298.873C355.673 298.873 354.833 298.543 354.213 297.956C353.593 297.369 353.245 296.572 353.245 295.742V162.911C353.245 158.371 339.728 137.86 326.642 120.544C326.129 119.867 325.921 119.025 326.063 118.203C326.206 117.381 326.687 116.646 327.402 116.16C328.116 115.674 329.005 115.477 329.872 115.612C330.74 115.747 331.516 116.204 332.028 116.88C336.655 123.143 359.854 154.112 359.854 162.911V295.742C359.854 296.572 359.506 297.369 358.886 297.956C358.267 298.543 357.426 298.873 356.55 298.873Z" fill="#093F68"/>
<path d="M200.141 83.4384C199.567 83.4383 199.004 83.2968 198.506 83.0278C198.007 82.7587 197.591 82.3715 197.299 81.904C196.852 81.1898 196.723 80.3366 196.94 79.5321C197.157 78.7277 197.702 78.0377 198.456 77.6141L264.386 40.8836C264.76 40.6259 265.186 40.4454 265.639 40.3538C266.091 40.2623 266.558 40.2616 267.011 40.352C267.463 40.4423 267.891 40.6216 268.265 40.8783C268.64 41.135 268.954 41.4634 269.186 41.8421C269.419 42.2209 269.565 42.6417 269.615 43.0773C269.665 43.5128 269.618 43.9535 269.477 44.3708C269.336 44.7881 269.104 45.1727 268.796 45.4997C268.488 45.8268 268.112 46.089 267.69 46.2695L201.793 83C201.293 83.2814 200.723 83.4327 200.141 83.4384Z" fill="#DFEAEF"/>
<path d="M243.885 102.257C243.332 102.256 242.788 102.123 242.303 101.872C241.818 101.62 241.408 101.257 241.109 100.816C240.634 100.122 240.468 99.278 240.648 98.4683C240.827 97.6586 241.338 96.9492 242.068 96.495L283.708 70.8494C284.444 70.3968 285.34 70.2398 286.198 70.413C287.056 70.5863 287.807 71.0755 288.285 71.7731C288.762 72.4707 288.928 73.3196 288.745 74.1329C288.562 74.9462 288.046 75.6574 287.31 76.11L245.67 101.756C245.138 102.081 244.519 102.255 243.885 102.257Z" fill="#DFEAEF"/>
<path d="M397.605 108.306C396.934 108.305 396.279 108.111 395.728 107.749C395.176 107.387 394.754 106.875 394.517 106.28C394.281 105.685 394.24 105.036 394.402 104.419C394.564 103.802 394.92 103.247 395.424 102.826L446.449 59.4887C446.772 59.2132 447.15 59.0007 447.56 58.8634C447.97 58.7261 448.404 58.6667 448.839 58.6885C449.273 58.7103 449.698 58.8129 450.091 58.9905C450.483 59.1681 450.835 59.4172 451.125 59.7236C451.416 60.0299 451.64 60.3875 451.785 60.776C451.93 61.1645 451.993 61.5762 451.97 61.9876C451.947 62.3991 451.839 62.8022 451.651 63.174C451.464 63.5457 451.201 63.8789 450.877 64.1544L399.819 107.523C399.208 108.034 398.419 108.313 397.605 108.306Z" fill="#DFEAEF"/>
<path d="M464.454 115.003C464.009 115.001 463.568 114.914 463.159 114.747C462.751 114.581 462.381 114.337 462.074 114.032C461.459 113.445 461.113 112.652 461.113 111.824C461.113 110.997 461.459 110.203 462.074 109.617L491.817 82.562C492.124 82.2685 492.49 82.0356 492.893 81.8766C493.295 81.7176 493.727 81.6357 494.164 81.6357C494.6 81.6357 495.032 81.7176 495.434 81.8766C495.837 82.0356 496.203 82.2685 496.51 82.562C497.125 83.1487 497.471 83.9423 497.471 84.7696C497.471 85.5968 497.125 86.3905 496.51 86.9772L466.767 114.032C466.468 114.33 466.109 114.569 465.712 114.735C465.315 114.902 464.888 114.993 464.454 115.003Z" fill="#DFEAEF"/>
</svg>
